<svg width="74" height="89" viewBox="0 0 74 89" fill="none" xmlns="http://www.w3.org/2000/svg">
<path d="M20.8911 29.5448C21.0368 29.2949 21.3082 29.2918 21.5397 29.1998C21.739 29.1201 22.0028 29.1492 22.1147 28.9162C22.0794 28.6801 21.8326 28.8257 21.7176 28.6203C23.2892 28.3933 24.8624 28.4194 26.4064 28.148C26.5796 27.8659 26.6072 27.5761 26.5888 27.2403C25.4113 26.8033 24.269 27.2357 23.0485 27.3246C23.1926 26.949 23.4349 26.8217 23.7446 26.7895C24.2506 26.7359 24.7581 26.6914 25.2656 26.6377C25.4833 26.6147 25.7256 26.6485 25.931 26.3801C24.8577 26.2237 23.8258 26.3173 22.7909 26.3142C23.7323 25.9263 24.7612 25.9493 25.7425 25.6626C25.6014 25.4648 25.4419 25.5154 25.3039 25.5399C24.5542 25.6702 23.7814 25.6564 23.0546 25.9232C22.7388 26.0382 22.4168 26.0627 22.0871 25.9217C21.5627 25.6994 21.0322 25.8925 20.491 25.9523C20.0877 25.7638 19.7274 25.4816 19.2199 25.336C19.6845 25.0339 20.1398 25.0324 20.5523 24.9741C21.7452 24.807 22.8844 24.4405 24.0451 24.1507C24.4606 24.0465 24.7918 23.8379 24.9451 23.3887C24.8332 22.2311 24.3487 21.147 24.0865 20.0078C23.7139 18.3963 23.2984 16.7925 22.8844 15.1902C22.7633 14.7226 22.5931 14.2672 22.429 13.8133C22.035 12.7278 21.923 11.5809 21.6731 10.4631C21.4401 9.42202 21.2116 8.37939 20.9801 7.33523C20.7899 7.40422 20.9356 7.64802 20.7562 7.70628C19.8577 6.39226 19.9129 4.94637 20.9341 3.81634C21.2745 3.43915 21.6655 3.10796 22.038 2.75991C22.4076 2.41339 22.8231 2.11593 23.1267 1.69888C23.2417 1.54095 23.3996 1.38915 23.6296 1.39682C24.0405 1.87214 24.0574 1.9672 23.7446 2.42719C23.533 2.73844 23.3291 3.04663 23.2079 3.44375C23.6158 3.36556 25.1736 2.60198 25.4113 2.38119C25.4956 2.30299 25.4987 2.20639 25.4082 2.06533C25.0862 1.9718 24.8516 2.36432 24.4821 2.30299C24.2904 2.0132 24.1984 1.68968 24.3257 1.24809C25.0985 0.938369 25.7762 0.364921 26.5827 0C26.8847 0.338856 27.1255 0.624047 27.3171 0.965969C27.9887 1.08096 28.6833 0.877039 29.3901 1.06257C29.7106 1.60995 30.097 2.0868 30.9234 1.9074C30.6934 1.47195 30.1092 1.59308 29.939 1.0963C30.7517 0.998169 31.4417 1.17296 32.0427 1.69428C33.0179 2.54372 33.7217 3.58022 34.2936 4.74244C35.35 6.88904 36.0246 9.14757 36.4524 11.4874C36.7238 12.967 36.8695 14.4619 36.917 15.9661C36.9554 17.1881 37.0105 18.4101 37.0489 19.6337C37.0581 19.9311 37.0841 20.2424 36.8051 20.6503C36.0722 17.8796 35.7701 15.1366 34.8762 12.5959C35.0142 12.3077 35.3071 12.4901 35.4313 12.2985C35.4788 12.2341 35.4895 12.1681 35.465 12.0853C34.9697 10.3727 34.5113 8.65232 34.1341 6.90897C33.7999 5.36496 32.9182 4.18433 31.6226 3.29963C31.3052 3.0819 30.9587 2.94237 30.5202 2.94237C30.2825 4.17053 30.8054 5.1089 31.5505 6.127C31.6073 5.30669 31.1948 4.71025 31.1227 4.0264C31.6839 3.97427 31.8618 4.29473 32.0182 4.69951C32.584 6.1546 32.8584 7.68481 33.1988 9.19816C33.2371 9.36683 33.2095 9.56002 33.3981 9.70568C33.6189 9.36989 33.3859 9.00804 33.4963 8.62932C33.9118 8.95591 34.0789 9.39442 34.1157 9.85901C34.269 11.7986 34.7229 13.6784 35.1875 15.5582C35.1982 15.6042 35.189 15.6548 35.189 15.7759C34.8287 15.546 34.5006 15.339 34.1755 15.132C34.0314 14.836 34.0682 14.4727 33.7692 14.1415C33.8321 15.6548 33.9578 17.0685 34.1862 18.5696C33.8106 18.3105 33.7723 17.898 33.3905 17.6788C33.1697 18.3917 33.4089 19.071 33.4119 19.7487C33.4165 20.4448 33.645 21.121 33.6726 21.8815C33.0393 21.7527 33.2954 21.1179 32.8707 20.8894C32.722 21.4292 32.7404 21.929 32.8477 22.4703C33.3261 22.5929 33.8045 22.5929 34.2798 22.5653C36.6472 22.4273 38.9992 22.1651 41.3421 21.7926C43.2065 21.4966 45.0848 21.3019 46.9723 21.4844C48.1529 21.5994 49.3075 21.4614 50.4544 21.2467C51.1643 21.1133 51.8727 21.1133 52.5841 21.078C53.6237 21.0244 54.6632 20.9768 55.712 20.9799C54.8748 21.4721 53.9119 21.4322 53.0058 21.6116C52.0827 21.7956 51.1612 21.9934 50.232 22.1544C49.2875 22.3185 48.3446 22.5009 47.3893 22.6895C47.8877 22.918 48.4412 22.7325 48.9855 22.852C48.872 23.266 48.4596 23.3688 48.4519 23.7168C47.512 23.9897 46.5982 24.0127 45.6813 23.9867C43.4595 23.9253 41.2608 24.2151 39.056 24.4145C38.2203 24.4896 37.4353 24.8468 36.5904 24.9097C36.1488 24.9419 35.6873 24.8668 35.2074 25.0799C36.0645 25.4847 36.9354 24.9726 37.7511 25.2762C36.388 25.6442 34.9774 25.7086 33.622 26.0796C34.1908 26.2161 34.7551 26.2299 35.3239 26.1225C36.3236 25.9324 37.3233 25.7469 38.3246 25.5629C38.4227 25.5445 38.527 25.5568 38.6282 25.5552L38.6128 25.5384C38.3276 25.9707 37.7511 25.914 37.3111 26.2835C37.8861 26.3709 38.366 26.3464 38.8444 26.3142C39.3534 26.2805 39.8609 26.236 40.3669 26.1808C41.0094 26.1103 41.6365 26.0919 42.1961 26.627C40.6383 26.9398 39.0881 27.159 37.4598 27.2924C37.7036 27.7018 38.0486 27.5132 38.3031 27.711C37.4031 27.987 36.4754 27.9027 35.5033 28.1649C35.7211 28.3519 35.8836 28.3289 36.0446 28.3197C38.4871 28.1863 40.9097 27.8368 43.3461 27.6466C44.9468 27.5224 46.5215 27.1928 48.1253 27.11C49.0162 27.064 49.907 27.0563 50.7963 26.9658C51.9631 26.8478 53.1269 26.7175 54.2799 26.4982C54.5789 26.4415 54.884 26.3909 55.1876 26.3801C56.6902 26.3265 58.1929 26.2575 59.6755 25.9845C59.7721 25.9661 59.8764 25.9815 59.8902 25.9815C60.1585 26.0551 59.9224 26.2559 60.2275 26.3433C61.1506 26.2329 62.2116 26.1164 63.268 25.9799C64.7369 25.7914 66.2058 25.6733 67.6885 25.7714C67.966 25.7898 68.2481 25.7653 68.5272 25.7484C69.4962 25.6917 70.4576 25.7638 71.4082 25.9385C72.066 26.0597 72.7314 25.9907 73.3923 26.0827C71.3576 26.1593 69.3628 26.5687 67.3052 26.8294C67.1074 26.2636 66.6627 26.2053 66.1491 26.1885C65.594 26.1701 65.042 26.0888 64.3858 26.1977C64.9025 26.6469 65.5342 26.5641 66.1215 26.9214C65.0727 27.1069 64.1098 26.9781 63.1653 27.0686C62.2269 27.159 61.2901 27.3047 60.3502 27.3446C59.3903 27.386 58.4535 27.5194 57.3649 27.7126C57.9307 28.1741 58.3722 28.4209 58.9288 28.125C59.1496 28.0085 59.3643 28.0146 59.5943 28.0253C60.3839 28.0606 61.1736 28.0698 61.9555 27.9058C63.2236 27.6405 64.4747 28.0161 65.7381 27.9379C65.7412 27.9885 65.7458 28.0376 65.7489 28.0882C65.157 28.1817 64.5667 28.3044 63.9703 28.3611C62.1947 28.5329 60.4176 28.6801 58.6406 28.8364C58.5394 28.8456 58.4152 28.8947 58.3385 28.8549C57.3618 28.3458 56.3912 28.7935 55.4253 28.8825C54.743 28.9453 54.0668 29.0956 53.3906 29.2198C52.9322 29.3041 52.4032 29.2382 52.1333 29.7672C52.1165 29.8024 52.0459 29.8147 51.9984 29.8285C50.7288 30.1888 49.5267 30.8021 48.1775 30.8512C47.2927 30.8834 46.4203 31.1103 45.5172 30.9462C45.1584 30.8818 44.7644 31.0198 44.3856 31.0674C44.2093 31.0888 44.0345 31.1057 43.7708 30.9876C44.0943 30.9141 44.3304 30.865 44.5635 30.8052C44.7107 30.7669 44.9269 30.7546 44.9836 30.6565C45.2611 30.1811 45.7273 30.2133 46.1642 30.1658C47.8064 29.9895 49.4501 29.8208 51.0815 29.6506C51.1536 29.4927 50.9159 29.5264 51.0217 29.3041C51.3912 29.0787 52.0873 29.1554 52.3725 28.4746C50.8101 28.2063 49.3044 28.2906 47.7987 28.2707C48.6712 27.7938 49.6525 27.9226 50.5556 27.6543C49.9929 27.4718 49.424 27.504 48.8644 27.57C48.3093 27.6359 47.7604 27.7662 47.2084 27.8567C46.7561 27.9303 46.2992 28.0499 45.8484 28.0345C44.7628 27.9962 43.7202 28.2231 42.6714 28.4317C41.5997 28.6433 40.5264 28.8487 39.4515 29.1278C39.9192 29.416 40.4313 29.3654 40.9327 29.2964C41.5629 29.209 42.1854 29.0588 42.8156 28.9698C43.4135 28.8855 43.9992 28.7935 44.5988 29.0925C44.9775 29.2811 45.4482 29.2029 45.8821 29.1707C46.4632 29.1278 47.0459 29.0986 47.6423 29.1216C47.0796 29.5924 46.4617 29.8867 45.7242 29.9787C44.4086 30.1428 43.0946 30.313 41.7653 30.2823C41.6395 30.2793 41.5092 30.29 41.3513 30.428C41.6855 30.6856 42.1072 30.4403 42.4936 30.6718C41.8925 30.98 41.3283 31.1072 40.764 31.026C40.5524 30.8083 40.7426 30.6549 40.7456 30.4786C38.6251 30.6289 36.4816 30.3897 34.3902 30.9708C34.4975 31.1517 34.66 31.1011 34.7996 31.0904C35.8407 31.006 36.8833 30.9309 37.9198 30.819C38.3261 30.7745 38.6895 30.7914 38.9655 31.1164C39.1771 31.3664 39.4515 31.3756 39.7321 31.3648C41.0308 31.3188 42.3295 31.2866 43.6251 31.4369C43.9195 31.4706 44.22 31.2713 44.5144 31.4522C44.4623 31.673 44.2783 31.6194 44.1418 31.6393C43.0578 31.7988 41.9769 31.9705 40.8744 31.9567C40.3056 31.949 39.7674 32.1008 39.2951 32.4427C38.9486 32.6927 38.5592 32.7494 38.136 32.731C37.3831 32.6973 36.618 32.6129 35.9005 32.9978C36.595 33.0407 37.3141 33.2002 37.975 32.9947C38.921 32.7019 39.7597 32.9548 40.6322 33.2554C39.7521 33.5866 38.76 33.539 37.8278 34.1523C38.7646 34.3271 39.5512 34.068 40.4328 33.9837C40.3638 35.586 39.8947 37.0456 39.8686 38.5651C39.2599 37.3584 39.4807 36.003 39.1433 34.6507C39.0253 35.382 39.1295 36.0076 39.1909 36.6332C39.2522 37.2726 39.1709 37.9058 39.0958 38.5375C39.0222 39.16 39.2292 39.7764 39.1602 40.5477C38.6527 39.7626 38.5668 39.0067 38.5101 38.2585C38.4181 37.061 38.0639 35.9064 37.9474 34.7151C37.9397 34.6415 37.8922 34.5725 37.7343 34.5663C37.6637 35.5308 37.5932 36.5013 37.5227 37.4719C37.2313 36.8249 36.9017 36.1977 37.0473 35.4556C37.1025 35.1735 37.009 34.896 36.9201 34.6323C36.8495 34.4268 36.6824 34.3854 36.4923 34.482C36.3865 34.5817 36.3436 34.7028 36.3804 34.8331C36.6318 35.75 36.6288 36.6961 36.6993 37.6329C36.8189 39.2306 37.1639 40.8022 37.2053 42.4121C37.2359 43.6265 37.1669 44.8455 37.3172 46.0644C36.7898 45.215 36.7668 44.2383 36.5996 43.2953C36.3037 43.9684 36.569 44.6967 36.273 45.356C35.8131 41.8433 35.5141 38.3183 35.2105 34.8117C34.3304 34.7181 34.1479 34.8699 34.1663 35.6182C34.174 35.8972 34.1847 36.1793 34.2246 36.4553C34.4239 37.8414 34.522 39.2398 34.7229 40.6274C34.8578 41.555 34.8517 42.4995 34.8287 43.444C34.8057 44.4345 34.9023 45.4281 34.9559 46.4201C34.9651 46.5949 35.0219 46.7682 34.9483 46.9568C34.7275 46.8679 34.844 46.5505 34.5021 46.4907C34.476 47.8001 34.4791 49.0988 34.3963 50.4235C34.1586 49.3824 33.921 48.3413 33.6741 47.2558C33.3077 47.1239 33.1589 46.8065 33.024 46.4324C32.8308 45.8958 32.6775 45.3407 32.4935 44.755C32.262 44.9666 32.3218 45.1521 32.3248 45.3192C32.3601 46.8985 32.4306 48.4778 32.4337 50.0571C32.4368 51.3926 32.653 52.6959 32.9182 53.9946C33.2264 55.5033 33.0961 57.0443 33.2816 58.5622C33.3307 58.967 33.3767 59.3748 33.3782 59.7812C33.3813 60.3194 33.5929 60.8836 33.1589 61.3834C33.0516 61.5061 33.0746 61.7806 33.1037 61.9753C33.1789 62.4905 32.8293 62.8845 32.745 63.3522C32.7189 63.4978 32.4582 63.461 32.4092 63.6941C32.9841 66.1366 32.4552 68.6389 32.4306 71.3084C32.7925 70.715 32.748 70.1845 32.863 69.6984C32.9749 69.9775 33.2295 71.221 33.2187 71.4709C33.1267 73.6604 33.0961 75.85 33.0899 78.041C33.0899 78.1162 33.0761 78.1913 33.0608 78.3492C32.6683 77.693 32.8232 76.9355 32.4 76.2241C32.173 77.6608 32.5027 78.9119 32.7419 80.1708C32.4383 79.8166 32.4291 79.3673 32.2896 78.9641C31.6027 76.9846 31.5183 74.9208 31.4355 72.857C31.4079 72.1762 31.4171 71.5108 31.1703 70.8361C30.997 70.3624 31.2607 69.8211 31.4631 69.1756C31.6579 69.8226 31.4693 70.3685 31.7499 70.8407C32.081 69.2507 31.8541 67.673 31.6671 66.086C31.6195 66.1688 31.5705 66.2516 31.5015 66.3727C31.3389 65.6368 31.0982 64.9483 31.1749 64.2047C31.2469 63.5055 31.2991 62.8048 31.2914 62.0872C30.9556 62.3632 31.0277 62.7879 30.8897 63.1667C30.7103 63.067 30.6781 62.9014 30.6796 62.7343C30.7057 60.695 30.3699 58.6634 30.5432 56.6226C30.626 55.6536 30.6796 54.6891 30.4098 53.737C30.396 53.6879 30.4036 53.6312 30.3822 53.5867C29.614 51.9522 29.8348 50.1889 29.7091 48.4717C29.6431 47.5824 29.591 46.6915 29.5005 45.8053C29.3717 44.5373 29.4085 43.2631 29.3579 41.992C29.3242 41.1288 29.2261 40.2732 29.0329 39.4176C28.9102 40.0739 28.7876 40.7286 28.6649 41.3848C28.2264 39.8378 28.2371 38.2324 27.9534 36.4967C27.6361 36.9031 27.6085 37.1928 27.6161 37.5194C27.6652 39.689 28.0516 41.8234 28.2954 43.9715C28.3276 44.2505 28.3628 44.5296 28.3628 44.8102C28.3613 46.3941 28.4656 47.9672 28.7369 49.5296C28.7707 49.7228 28.8305 49.9268 28.7416 50.1031C28.4656 50.2733 28.2816 50.1414 28.0669 49.959C27.9964 49.7474 28.2356 49.5404 28.1236 49.2705C27.8078 48.5115 27.7786 47.6851 27.6821 46.8801C27.6223 46.3741 27.3018 46 27.1193 45.5569C27.2742 45.6014 27.3662 45.8482 27.6575 45.655C27.5993 44.4591 27.5763 43.2171 27.3601 41.9844C27.1546 43.1834 27.1776 44.387 27.1439 45.5891C26.6594 45.3944 26.4554 45.0187 26.4616 44.5143C26.4646 44.3119 26.4723 44.1141 26.2868 43.9025C26.069 44.3793 26.2484 44.8424 26.1488 45.4419C25.7409 44.3471 25.7409 43.3244 25.491 42.3569C25.2457 41.4017 24.8976 40.4633 24.8501 39.4652C25.2503 39.1263 25.5201 39.4759 25.8391 39.5664C26.092 40.264 25.7517 41.0169 26.1058 41.6992C26.4018 41.5888 26.1564 41.3051 26.319 41.1671C26.4186 41.2146 26.5244 41.2652 26.6471 41.3235C26.6777 41.2438 26.7268 41.1778 26.7253 41.1119C26.7054 40.2456 26.48 39.3839 26.595 38.5222C26.6747 37.9227 26.4938 37.4305 26.1994 36.8463C25.5585 36.9123 24.8915 36.9153 24.2567 37.061C22.9166 37.3707 21.5689 37.6436 20.2211 37.9165C19.7933 38.0024 19.3901 38.1588 18.9822 38.3014C18.5897 38.4379 18.2953 38.6479 18.3689 39.1033C17.7755 39.5357 17.0748 39.4958 16.4492 39.7028C15.3131 40.0815 14.1907 40.4955 13.0729 40.9218C11.5412 41.506 9.96037 41.8694 8.34429 42.1085C7.18513 42.2787 6.02903 42.498 4.85147 42.2695C4.67668 42.2358 4.49421 42.2205 4.33169 42.1576C3.95297 42.0104 3.58191 41.8387 3.20932 41.6746C2.84747 41.5152 2.44422 41.7528 2.01796 41.5152C1.55338 39.9451 0.774473 38.4195 0.395752 36.7221C0.990666 36.4875 1.47058 36.0889 2.10843 36.3971C2.31542 36.4967 2.49635 36.3235 2.68801 36.2713C2.91187 36.21 3.10506 36.2683 3.20319 36.4799C3.30132 36.6884 3.21852 36.8801 3.05753 37.0303C2.87813 37.1974 2.59754 37.2327 2.40128 37.5179C2.9916 37.7218 3.47918 37.6283 3.8303 37.4274C4.11856 37.2266 4.02503 37.0027 4.13696 36.8678C5.40652 36.026 6.90914 35.8114 8.31362 35.3176C7.49178 35.2364 6.69601 35.4188 5.92477 35.3667C5.80824 35.1827 6.03516 35.1214 5.90177 34.8255C5.90943 34.8408 5.76837 34.8837 5.65031 34.8669C5.52611 34.85 5.40192 34.8347 5.29919 34.8209C5.10293 34.6077 5.10139 34.3854 5.16426 34.0603C5.97383 33.5482 6.21916 32.6697 6.29429 31.6684C7.99317 31.2008 9.64298 30.52 11.5626 30.5016C10.402 31.5672 8.92234 31.5304 7.64818 32.0103C7.75091 32.2863 7.92877 32.1821 8.05757 32.1637C9.06033 32.0134 10.0646 31.9398 11.0367 31.5565C11.808 31.2514 12.6681 31.1716 13.4839 30.9754C13.881 30.8803 14.2198 31.1226 14.6062 31.1057C12.3109 31.9965 9.83464 32.2388 7.56538 33.2002C8.58808 33.122 9.55405 32.7862 10.5507 32.5976C11.5473 32.409 12.5486 32.2465 13.5145 31.9552C13.6372 32.2189 13.3505 32.3109 13.4578 32.5869C13.5161 32.7279 13.6924 32.7847 13.9147 32.6988C14.2244 32.5807 14.528 32.4473 14.8347 32.3231C15.9678 31.8647 17.1101 31.4476 18.3106 31.1793C20.0494 30.7914 21.7482 30.2317 23.5299 30.037C24.0359 29.9818 24.5419 29.9097 25.0479 29.8546C25.4511 29.8116 25.8406 29.7242 26.1932 29.4712C25.2503 29.5617 24.3042 29.4421 23.3705 29.6215C23.3337 29.3915 23.6066 29.4406 23.6679 29.2857C23.5775 29.0511 23.3766 29.1508 23.2171 29.1584C22.426 29.1968 21.6624 29.4145 20.8819 29.5172L20.8911 29.5448ZM11.8463 33.056C11.1671 33.0867 10.3606 33.352 9.80857 33.7813C10.6641 33.7552 11.3265 33.6295 11.8325 33.0422L11.8632 33.0238L11.8463 33.056ZM27.6269 33.9208C27.1592 33.8288 23.7139 34.2505 23.441 34.4483C23.3567 34.5081 23.487 34.6967 23.303 34.919C21.3297 35.5492 19.2536 36.2115 17.2389 36.854C16.9475 36.7129 16.9537 36.4078 16.6624 36.2989C16.322 36.3051 15.9785 36.4906 15.6213 36.6102C15.1137 36.7804 14.6292 37.0088 14.0849 36.7099C13.9024 36.6102 13.6878 36.7068 13.4931 36.7758C12.823 37.0165 12.1453 37.2419 11.4814 37.498C11.1272 37.6344 10.7193 37.6375 10.3498 37.8936C10.9294 38.0469 11.4308 37.7387 12.0088 37.8384C11.6056 38.0791 11.1533 38.0162 10.8757 38.3903C11.9567 38.3305 13.0101 37.9319 14.2091 38.1159C13.4333 38.4517 12.6559 38.4011 11.9153 38.835C12.429 38.927 12.8215 38.7967 13.237 38.8381C12.7387 39.1478 12.1652 39.3011 11.6592 39.6415C11.8448 39.7596 11.9582 39.6676 12.0717 39.6354C13.2677 39.2888 14.4621 38.9347 15.6565 38.5881C15.7132 38.5713 15.7991 38.5544 15.8068 38.6449C15.816 38.8534 15.4097 38.8243 15.5523 39.1232C15.9064 39.0328 16.2484 38.9301 16.5949 38.8595C17.1208 38.7537 17.5762 38.5774 17.6099 37.9917C18.9209 37.2281 20.3606 37.0656 21.7191 36.6501C21.7896 36.6286 21.877 36.6133 21.9445 36.6332C22.4628 36.7865 22.9473 36.5887 23.4441 36.5044C24.4468 36.3342 25.4174 36.0122 26.4355 35.8926C26.8602 35.8436 27.3754 35.8911 27.7081 35.4602C27.7679 34.9589 27.7281 34.4575 27.6269 33.9208ZM37.9075 23.2568C38.1237 23.5022 38.3261 23.5114 38.484 23.4899C40.9695 23.1464 43.4856 23.1004 45.9925 22.7739C45.7181 22.2127 45.6322 22.1467 45.2059 22.1881C43.2847 22.3767 41.362 22.5607 39.4408 22.7662C38.9225 22.8229 38.4166 22.967 37.9075 23.2568ZM27.4383 31.5289C26.8633 30.8819 26.457 31.4737 25.9602 31.4906C25.7103 31.0658 25.3101 31.1992 24.9145 31.3081C24.5726 31.4032 24.2214 31.4783 23.8933 31.6086C23.4333 31.7911 23.0209 32.0379 22.636 32.3783C22.2527 32.7172 21.6302 32.6528 21.1993 33.0024C23.3183 32.7969 25.3975 32.4427 27.4383 31.5289ZM30.8682 23.0682C30.9801 22.2035 30.0372 14.7548 29.7566 14.1813C29.6707 14.2043 29.6309 14.2703 29.6416 14.3469C29.8777 15.9339 29.8087 17.5423 30.0126 19.1323C30.1614 20.2899 30.215 21.4614 30.3009 22.6267C30.327 22.9701 30.4542 23.1495 30.8682 23.0682ZM10.0217 35.9509C9.14773 35.9586 8.35656 35.8252 7.55772 36.1011C6.8754 36.3357 6.28816 36.7344 5.65798 37.0564C4.9358 37.4244 4.21516 37.797 3.44085 38.1941C3.75517 38.2707 3.97443 38.1772 4.17989 38.0959C5.8803 37.4213 7.65738 37.0119 9.42832 36.5795C9.69204 36.5136 9.96957 36.4277 10.0217 35.9509ZM28.8964 22.1329C29.1525 21.9275 29.1325 21.7006 29.0942 21.4706C28.901 20.2915 28.852 19.0725 28.0454 17.8857C28.0316 19.3224 28.2601 20.5981 28.0454 21.8094C28.3337 22.0716 28.576 22.1866 28.8964 22.1329ZM32.4322 17.6496C32.7327 17.4319 32.6361 17.1053 32.6591 16.8124C32.6821 16.5058 32.6959 16.1991 32.7158 15.8449C32.7971 16.1669 32.7756 16.4874 33.1927 16.6867C33.1605 16.0749 33.1528 15.5521 33.0991 15.0354C33.0485 14.5524 33.2877 14.0127 32.8523 13.5082C32.6898 13.9329 32.8646 14.3377 32.6162 14.7502C32.469 14.3301 32.4981 13.9345 32.2236 13.6309C32.1868 14.8345 32.4291 16.0305 32.2834 17.231C32.2666 17.3752 32.2819 17.5408 32.4322 17.6496ZM25.1138 19.6536C25.1981 18.3319 25.1491 17.0302 24.8348 15.7821C24.4913 15.7376 24.3318 15.825 24.2337 16.1071C24.6906 17.2172 24.7105 18.4761 25.1138 19.6536ZM3.79197 39.64C4.85147 39.758 7.44272 39.0312 8.0407 38.4486C6.27436 38.5651 4.21516 39.1432 3.79197 39.64ZM36.2408 29.4114C33.6251 29.6154 33.4533 29.6522 33.1528 30.0784C33.5791 30.1673 33.9608 29.9419 34.3626 29.9757C34.9513 30.2823 36.0369 30.2946 36.1611 30.0569C36.247 29.827 36.0047 29.8469 36.017 29.7074C36.0737 29.6322 36.132 29.5556 36.2408 29.4114ZM20.9877 31.8524C20.123 31.7727 17.5087 32.5915 16.8755 33.0637C16.9261 33.148 17.0058 33.1281 17.0748 33.1051C17.8445 32.8445 18.6296 32.6574 19.4345 32.5439C19.9666 32.4719 20.3683 32.1161 20.9877 31.8524ZM25.9985 19.7778C25.7639 20.6886 25.8743 21.4874 25.7578 22.2633C25.7394 22.3875 25.7471 22.5178 25.7532 22.6451C25.767 22.895 25.8252 23.1081 26.1518 23.0621C26.3481 22.3307 26.2929 20.5675 25.9985 19.7778ZM27.0151 29.9144C25.8804 30.4479 24.6738 30.3023 23.5238 30.704C23.8442 30.7224 24.1187 30.7454 24.3932 30.7546C25.1552 30.7791 25.9111 30.7025 26.6578 30.5599C26.9461 30.5047 27.2067 30.4142 27.0151 29.9144ZM15.3345 33.171C14.2704 33.3888 13.237 33.7077 12.2894 34.2612C13.3919 34.1554 14.4054 33.792 15.3345 33.171ZM16.8525 35.0432C16.0705 34.8178 14.4897 35.2149 14.0849 35.5921C14.1478 35.7332 14.2888 35.77 14.4023 35.7393C15.2211 35.517 16.0368 35.2778 16.8525 35.0432ZM23.326 25.4893C24.1739 25.4862 25.008 25.4387 25.8866 25.0615C25.0003 24.8468 23.7553 25.0354 23.326 25.4893ZM5.9033 40.9064C6.60095 40.7899 7.25413 40.6243 7.87971 40.333C7.30626 40.1444 6.73741 40.1628 6.17316 40.2441C5.8665 40.2885 5.74691 40.4787 5.9033 40.9064ZM38.1697 30.0661C38.7784 30.3176 40.2718 30.1934 41.0569 29.8607C40.0403 29.807 39.0958 29.7856 38.1697 30.0661ZM30.2396 28.9024C30.1598 29.209 30.2748 29.3286 30.4772 29.3593C30.9142 29.4252 31.8664 29.0404 32.1792 28.6187C31.4907 28.7736 30.8529 28.6555 30.2396 28.9024ZM7.91497 38.0116C7.83064 37.6452 7.83064 37.6452 7.48719 37.4489C7.13913 37.6498 6.67914 37.7019 6.33415 38.1465C6.94133 38.26 7.39979 38.1879 7.91497 38.0116ZM32.078 30.0155C31.2393 29.7518 30.6628 29.8883 30.3239 30.4234C31.0123 30.6166 31.5291 30.2287 32.078 30.0155ZM8.43168 34.5817C8.43322 34.5188 8.43322 34.4559 8.43475 34.3931C8.01003 34.3931 7.58378 34.3808 7.1606 34.3961C6.84167 34.4084 6.71901 34.5786 6.82634 34.9512C7.40286 34.9328 7.91957 34.7687 8.43168 34.5817ZM34.4806 27.0578C33.5239 26.7359 33.2417 26.7757 32.8845 27.2556C33.4733 27.5638 33.9685 27.2388 34.4806 27.0578ZM10.1996 36.8923C9.50345 36.8525 9.07106 37.0901 8.73834 37.5593C9.25046 37.5087 9.82544 37.6222 10.1996 36.8923ZM1.38932 37.248C1.33105 37.6206 1.35252 37.8782 1.64538 38.0162C1.79564 38.0883 1.93517 38.0269 1.99803 37.8414C1.89377 37.6007 1.7803 37.36 1.38932 37.248ZM7.62978 39.4299C7.96864 39.5418 8.30749 39.6277 8.60035 39.2704C8.1097 39.1263 8.1097 39.1263 7.62978 39.4299ZM2.38902 39.3502C2.29856 39.7166 2.39055 39.8868 2.70028 39.9895C2.83827 39.6599 2.72941 39.4943 2.38902 39.3502ZM29.0497 38.9377C29.0559 38.9163 29.0743 38.8871 29.0666 38.8749C29.0344 38.8227 28.9945 38.8258 28.9685 38.8841C28.9623 38.8994 28.9746 38.9331 28.9884 38.9439C29.0007 38.9531 29.0283 38.9408 29.0497 38.9377Z" fill="black"/>
<path d="M28.2158 72.7394C28.4121 72.8744 28.2312 73.0844 28.4719 73.1994C28.9625 72.8974 28.9227 72.3331 28.9763 71.8425C29.03 71.3411 28.9886 70.8305 29.0561 70.3215C29.3014 71.9529 28.8567 73.6471 29.4884 75.274C29.5743 75.2034 29.6418 75.1712 29.6418 75.1421C29.5942 73.2623 29.5283 71.384 29.4961 69.5042C29.4792 68.5628 29.5206 67.6198 29.5375 66.6784C29.5544 65.6327 29.5513 64.59 29.3949 63.552C29.3413 63.1963 29.3826 62.8513 29.49 62.5232C29.7844 62.4296 30.0159 62.5462 30.3057 62.6152C30.3302 63.1948 30.3869 63.7774 30.3716 64.3585C30.318 66.4223 30.3302 68.4846 30.3793 70.5469C30.4084 71.7919 30.505 73.0354 30.528 74.2804C30.5418 75.0424 30.4774 75.8075 30.4452 76.5696C30.4222 77.1047 30.3824 77.6352 30.5939 78.1535C30.6675 78.3329 30.6783 78.5583 30.6537 78.7545C30.4697 80.2004 30.6369 81.6616 30.4728 83.1044C30.2781 84.8048 30.3042 86.5068 30.2965 88.2118C30.2965 88.3559 30.3517 88.5215 30.1202 88.6611C29.9408 87.738 29.7844 86.8349 29.5896 85.941C29.1618 83.9707 29.2922 81.9345 28.8521 79.9597C28.6666 79.1256 28.7126 78.2378 28.6865 77.373C28.6574 76.3764 28.5501 75.3905 28.3369 74.4215C28.2128 73.8679 28.2419 73.3236 28.2158 72.7394Z" fill="black"/>
<path d="M12.3001 29.2348C11.5534 29.684 10.7653 30.0213 9.91436 30.2283C9.17379 30.4093 8.41634 30.5733 7.71563 30.8631C6.07655 31.5378 4.31481 31.6313 2.62207 32.0468C2.45187 32.0882 2.27708 32.1649 2.09155 31.9732C2.22955 31.4427 2.77233 31.455 3.14032 31.2526C3.51597 31.0456 3.94836 30.9459 4.28415 30.7083C4.47734 30.3571 4.41908 29.9815 4.54481 29.5859C8.51754 27.6724 12.6482 26.1682 17.1561 25.4629C16.7497 26.0164 16.7451 26.0026 15.3361 26.4442C14.6875 26.6466 14.0021 26.7508 13.2814 27.1311C13.7644 27.2952 14.1094 27.0912 14.4513 27.0422C14.8515 26.9854 15.2349 26.8137 15.635 26.7432C16.0168 26.6757 16.325 26.4212 16.7635 26.3384C16.762 26.6175 16.5872 26.7263 16.4078 26.7723C15.1214 27.102 13.9438 27.7843 12.6482 28.0265C11.6178 28.2197 10.6166 28.485 9.6169 28.7717C9.20138 28.8913 8.79046 29.0278 8.37954 29.1642C8.27068 29.201 8.12502 29.2194 8.14035 29.4556C9.18912 29.2378 10.1505 28.7472 11.1962 28.5862C12.2235 28.4283 13.2278 28.1707 14.2367 27.9131C13.4593 28.4651 12.4887 28.4574 11.6424 28.8116C10.8052 29.1627 9.93889 29.4479 9.07106 29.7668C9.19985 30.0198 9.36391 29.8956 9.48044 29.8649C10.218 29.6702 10.9892 29.6012 11.6991 29.2961C11.8938 29.2133 12.0978 29.2225 12.3017 29.2424L12.3001 29.2348Z" fill="black"/>
<path d="M58.8839 31.0179C57.5376 31.3077 56.4551 32.0222 55.1565 31.9962C55.0399 31.7662 54.951 31.5868 54.8575 31.3997C53.9804 31.0609 53.1617 31.4442 52.3812 31.527C52.185 31.734 52.4119 31.8566 52.3751 31.9916C51.8982 32.2492 49.8912 32.5022 47.5023 32.6141C47.3796 32.1096 47.4119 32.0238 47.8412 31.9272C48.3364 31.8152 48.847 31.8045 49.3055 31.8122C49.4848 31.6481 49.376 31.5454 49.3177 31.4396C49.79 30.9949 50.388 31.0087 50.9629 30.9765C52.9669 30.8646 54.9725 30.7527 56.978 30.6729C57.5652 30.6469 58.1908 30.5365 58.8839 31.0179Z" fill="black"/>
<path d="M27.9119 52.0333C27.9027 53.2707 27.8321 54.5034 27.6742 55.8359C27.1529 55.2624 27.32 54.623 27.2418 54.0511C27.159 53.4485 27.1069 52.8414 27.0394 52.2326C27.2112 51.8018 27.6083 51.5043 27.6788 51.0566C27.9885 50.865 28.2967 50.9048 28.6248 50.8604C29.0051 51.5074 28.7582 52.2096 28.8257 52.8736C28.8916 53.5298 28.8962 54.1922 28.9054 54.853C28.9131 55.5139 29.0695 56.187 28.7874 56.8386C28.723 56.2774 28.5175 55.7653 28.3412 55.2455C28.2323 54.9251 28.2676 54.5954 28.2553 54.2642C28.2262 53.5145 28.3473 52.7325 27.8919 52.0502C27.8705 52.0072 27.9579 51.9061 27.8245 51.9245C27.8536 51.9597 27.8827 51.9965 27.9119 52.0333Z" fill="black"/>
<path d="M50.5692 25.9281C49.6017 26.224 48.6311 26.5169 47.6667 26.8204C47.4183 26.8986 47.1653 26.8802 46.9138 26.9048C46.0291 26.9937 45.1367 26.9048 44.252 27.0274C44.0849 27.0504 43.8917 27.0673 43.7552 26.8772C43.7782 26.6549 43.8979 26.4678 44.0297 26.2807C44.2459 26.1274 44.5066 26.0875 44.7519 26.0799C45.6979 26.0492 46.6072 25.7947 47.5363 25.6628C48.556 25.5172 49.5511 25.5908 50.5692 25.9281Z" fill="black"/>
<path d="M28.5852 60.9492C29.1648 61.7465 28.5974 62.6634 28.9792 63.4316C29.3748 64.2258 29.1678 65.0691 29.177 65.8941C29.1862 66.7312 29.1786 67.5684 29.1786 68.4562C28.8305 67.9441 28.6036 66.7634 28.5898 65.9217C28.2249 66.0688 28.4165 66.4936 28.1221 66.7159C28.1267 65.523 27.7357 64.3792 28.0608 63.2062C28.1635 62.8336 28.0899 62.4457 28.0807 62.0639C28.0639 61.5043 28.0731 61.492 28.5852 60.9492Z" fill="black"/>
<path d="M2.79722 32.8936C2.68529 32.9856 2.57336 33.0775 2.37557 33.2401C2.90148 33.3873 3.31701 33.1281 3.87359 33.1159C3.16368 33.7062 2.32037 33.8703 1.79446 34.4989C2.09805 34.9267 2.41543 34.6108 2.71136 34.5725C3.01035 34.5342 3.30014 34.4084 3.61753 34.4759C3.11768 35.0601 2.03518 35.5952 1.35747 35.5584C0.978749 35.5385 0.69049 35.7547 0.3777 35.8911C0.124708 35.3821 0.124711 35.3821 0.150777 34.7948C0.232041 34.6078 0.446698 34.6062 0.57396 34.4851C0.905149 33.2784 1.27007 33.0239 2.81562 32.9135C2.81562 32.912 2.79722 32.8936 2.79722 32.8936Z" fill="black"/>
<path d="M60.1951 30.4628C62.7832 29.9645 65.3024 30.6897 67.8538 30.8814C67.1822 30.9611 66.5199 31.0531 65.8559 31.1344C64.7704 31.2662 63.6802 31.3659 62.5947 31.4886C62.2788 31.5238 61.9752 31.507 61.7237 31.303C61.3174 30.9719 60.862 30.7725 60.3469 30.6943C60.2717 30.6805 60.2135 30.6238 60.1951 30.4628Z" fill="black"/>
<path d="M36.1904 53.6895C36.5094 53.8305 36.4618 54.1326 36.7179 54.2844C37.1365 54.1295 37.6133 53.9516 38.0902 54.1617C38.3585 54.4316 38.3094 54.7489 38.3079 55.0479C38.3064 55.557 38.2864 56.0645 38.2711 56.5736C38.2328 57.7665 38.3278 58.9517 38.4934 60.14C38.1607 59.5757 37.9522 58.9731 37.8678 58.3261C37.7145 57.1623 37.2484 56.0737 37.0414 54.9207C37.0061 54.7275 36.9034 54.5542 36.678 54.4684C36.3576 54.3457 36.3238 54.0314 36.1904 53.6895Z" fill="black"/>
<path d="M61.8864 21.4932C64.3657 21.6956 66.6671 22.1816 69.0038 22.4039C68.4687 22.5389 67.9352 22.4883 67.3954 22.4929C66.1305 22.5021 64.8548 22.5189 63.6052 22.7919C63.4319 22.8302 63.2602 22.8808 63.0854 22.9069C62.7159 22.9636 62.4307 22.8179 62.2697 22.4883C62.1393 22.223 62.0535 21.9347 61.8864 21.4932Z" fill="black"/>
<path d="M40.1091 50.8222C39.6829 50.0601 39.5663 49.3625 39.479 48.6664C39.3486 47.6299 39.3578 46.5857 39.3686 45.5431C39.3747 44.9574 39.502 44.8899 40.2379 45.054C40.3131 46.9123 40.3805 48.7921 40.1091 50.8222Z" fill="black"/>
<path d="M61.8297 23.0932C61.4908 23.3968 61.1689 23.3508 60.8791 23.3815C60.2244 23.452 59.5681 23.4903 58.9119 23.5394C57.8938 23.616 57.4261 23.2588 57.1425 22.138C58.8107 21.9187 60.2811 22.5029 61.8297 23.0932Z" fill="black"/>
<path d="M47.3108 25.1924C46.1378 25.5527 44.9388 25.7444 43.7474 25.9667C43.5236 26.0081 43.2997 26.0525 43.0774 26.1047C42.2494 26.3009 41.9489 26.0786 41.8278 25.177C42.5821 24.8351 45.4524 24.8152 47.3108 25.1924Z" fill="black"/>
<path d="M47.8003 24.2989C48.5424 23.9892 49.3382 23.8911 50.1431 23.8497C51.057 23.8037 51.9708 23.7577 52.8846 23.8512C53.6881 23.934 54.4946 23.9417 55.3026 23.8727C54.1097 24.2177 49.2738 24.8785 48.2909 24.8693C48.1606 24.8402 48.0594 24.7651 47.9858 24.6577C47.9168 24.5581 47.7926 24.4906 47.8003 24.2989Z" fill="black"/>
<path d="M36.1379 57.8492C36.5182 57.541 36.8601 57.5594 37.1944 57.5931C37.4903 57.9427 37.4934 58.3245 37.5041 58.7032C37.5363 59.8685 37.4489 61.0353 37.5532 62.2006C37.5639 62.3125 37.5992 62.4459 37.4504 62.5671C36.9107 61 36.6301 59.3855 36.1379 57.8492Z" fill="black"/>
<path d="M35.9079 70.1575C35.8313 68.5384 35.5323 66.956 35.2087 65.3583C35.8389 65.1897 36.3326 65.4197 36.9153 65.4381C36.5826 67.0664 36.1042 68.5782 35.9079 70.1575Z" fill="black"/>
<path d="M39.0129 48.1989C38.7154 47.9613 38.7016 47.627 38.6357 47.3173C38.5069 46.7101 38.2999 43.2617 38.3597 42.857C38.5805 42.6822 38.8243 42.7113 39.0589 42.7818C39.18 42.8723 39.2536 42.9857 39.2475 43.1145C39.157 44.8027 39.042 46.4908 39.0129 48.1989Z" fill="black"/>
<path d="M34.6719 15.9229C35.2208 16.1482 35.5076 16.527 35.506 17.0529C35.503 18.0986 35.618 19.132 35.7253 20.167C35.7422 20.328 35.8096 20.5196 35.618 20.6423C34.8758 19.8481 34.2533 17.0099 34.6719 15.9229Z" fill="black"/>
<path d="M40.9568 32.5565C41.3876 32.3081 41.7541 32.3893 42.0914 32.3433C43.2736 32.1823 44.4603 32.0535 45.6456 31.9125C45.8694 31.8864 46.1056 31.822 46.2267 32.2053C44.9357 32.5703 43.6554 32.9336 42.3582 33.3001C41.9105 33.0609 41.4735 32.8294 40.9568 32.5565Z" fill="black"/>
<path d="M38.5195 53.3983C38.1591 51.9309 38.0763 48.9211 38.3539 47.998C38.5394 48.3308 38.6345 48.6604 38.8644 48.9257C39.2202 49.3366 39.0607 49.8549 39.004 50.3194C38.8828 51.2961 38.7004 52.2652 38.5195 53.3983Z" fill="black"/>
<path d="M54.0052 29.3913C55.4495 29.3729 56.8126 29.1475 58.1297 29.7501C57.7234 29.9632 54.5449 30.2714 53.3014 30.2193C53.5513 29.9111 54.0466 29.885 54.0052 29.3913Z" fill="black"/>
<path d="M39.473 54.7969C39.4898 53.3724 38.8658 51.9725 39.3059 50.3779C39.6708 50.9008 39.9989 51.2626 40.0112 51.7625C40.0388 52.8082 39.6999 53.791 39.473 54.7969Z" fill="black"/>
<path d="M32.5089 5.29495C32.791 5.24741 32.9873 5.22288 33.2173 5.32561C33.6987 6.16738 33.9349 7.11188 34.0943 8.22045C33.5561 7.81106 33.1222 7.49827 32.9904 6.88036C32.8784 6.36364 32.6852 5.86533 32.5089 5.29495Z" fill="black"/>
<path d="M55.8838 24.5635C54.7845 24.8977 53.656 24.8824 52.4094 24.8671C53.6284 24.5374 54.7707 24.7352 55.8838 24.5635Z" fill="black"/>
<path d="M36.9581 64.7658C36.4797 64.2767 35.8112 63.9148 35.7345 62.9902C35.9921 63.3981 36.1516 63.7109 36.3708 63.9746C36.5824 64.2322 36.8875 64.4116 36.9581 64.7658Z" fill="black"/>
<path d="M38.9025 64.9559C38.927 64.2353 39.1309 63.6465 39.6691 63.208C39.666 63.4825 39.2935 64.3472 38.9025 64.9559Z" fill="black"/>
<path d="M48.1509 29.5897C48.7949 29.4977 49.425 29.3045 50.0752 29.4701C49.4296 29.5192 48.7979 29.72 48.1509 29.5897Z" fill="black"/>
<path d="M35.9004 47.7406C35.5248 47.3711 35.7425 46.9449 35.7333 46.4189C36.0384 46.9065 36.0584 47.3098 35.9004 47.7406Z" fill="black"/>
<path d="M35.8345 71.4336C35.8345 72.145 35.8345 72.855 35.8345 73.5664C35.6152 72.8534 35.8099 72.1435 35.8345 71.4336Z" fill="black"/>
<path d="M44.2721 21.1206C44.6156 20.9044 44.9605 20.7097 45.5079 21.0041C44.9881 21.0532 44.6309 21.0869 44.2721 21.1206Z" fill="black"/>
<path d="M35.1525 49.7549C35.4576 50.1995 35.1555 50.5936 35.1525 51.0106C35.1525 50.5921 35.1525 50.1735 35.1525 49.7549Z" fill="black"/>
<path d="M59.1802 20.9558C59.4853 20.7135 59.792 20.7718 60.0909 20.7687C60.4129 20.7656 60.7349 20.8193 61.0998 20.8515C60.945 20.991 60.8116 20.9527 60.6889 20.9542C60.186 20.9588 59.6831 20.9558 59.1802 20.9558Z" fill="black"/>
<path d="M37.1036 63.3381C36.9227 63.0575 36.8215 62.7416 36.7372 62.4227C36.6789 62.2065 36.6605 61.978 36.6605 61.748C36.8798 62.2632 37.0331 62.7937 37.0852 63.3519L37.1036 63.3381Z" fill="black"/>
<path d="M67.6989 21.5889C67.4168 21.5398 67.1071 21.5919 66.8801 21.3528C67.2972 21.1228 67.3892 21.1427 67.6989 21.5889Z" fill="black"/>
<path d="M37.1835 74.3745C36.8799 73.8378 37.1789 73.4898 37.3261 73.1172C37.3322 73.5128 37.3107 73.9084 37.1835 74.3745Z" fill="black"/>
<path d="M39.4573 39.2129C39.6061 39.5778 39.787 39.932 39.7747 40.3399C39.5953 39.9841 39.419 39.6269 39.4573 39.2129Z" fill="black"/>
<path d="M33.5425 2.04199C33.7955 2.13399 33.9733 2.27352 34.0009 2.56637C33.5885 2.37625 33.5885 2.37625 33.5425 2.04199Z" fill="black"/>
<path d="M40.7391 42.4182C41.032 42.8598 40.7851 43.3397 40.7575 43.7982C40.7575 43.3321 40.7575 42.8675 40.7575 42.4014L40.7391 42.4182Z" fill="black"/>
<path d="M62.5873 25.3455C62.0599 25.3455 61.695 25.3455 61.3254 25.3455C61.4588 25.1523 61.6566 25.2704 61.8192 25.2382C62.0093 25.2014 62.2101 25.1584 62.5873 25.3455Z" fill="black"/>
<path d="M35.6935 64.1394C36.0001 64.2513 36.1105 64.5058 36.1719 64.7956C35.8928 64.6591 35.7794 64.4077 35.7119 64.124L35.6935 64.1394Z" fill="black"/>
<path d="M27.8877 57.457C28.1161 57.7683 27.9659 57.9186 27.8555 58.0734C27.765 58.0734 27.7129 58.0213 27.6945 57.9507C27.6454 57.7606 27.7527 57.6364 27.8877 57.457Z" fill="black"/>
<path d="M27.7449 66.1963C27.7327 66.414 27.7219 66.6317 27.702 66.9875C27.426 66.6164 27.5962 66.3864 27.7449 66.1963Z" fill="black"/>
<path d="M32.6101 81.166C32.7925 81.3454 32.6438 81.5355 32.6269 81.7134C32.584 81.7824 32.5457 81.7809 32.5395 81.7134C32.5273 81.5892 32.5196 81.4635 32.5211 81.3393C32.5211 81.2733 32.5073 81.1905 32.6101 81.166Z" fill="black"/>
<path d="M26.7084 46.36C26.5459 46.084 26.5536 45.9445 26.6118 45.7988C26.7943 45.9138 26.7989 46.0595 26.7084 46.36Z" fill="black"/>
<path d="M35.0431 77.71C35.2286 77.9875 35.1611 78.15 35.014 78.3417C34.9312 78.1224 34.945 77.9522 35.0431 77.71Z" fill="black"/>
<path d="M56.0016 21.8157C55.7839 21.9031 55.6382 21.8311 55.4865 21.7176C55.5324 21.5413 55.6704 21.6226 55.7655 21.6272C55.8606 21.6302 55.9602 21.6578 56.0016 21.8157Z" fill="black"/>
<path d="M40.2209 39.7646C40.3191 40.0452 40.4034 40.2492 40.2485 40.5129C40.0783 40.2645 40.1734 40.0529 40.2209 39.7646Z" fill="black"/>
<path d="M26.8921 49.1543C27.0025 49.2846 27.1021 49.4196 27.0991 49.6649C26.8277 49.51 26.9396 49.3061 26.8921 49.1543Z" fill="black"/>
<path d="M20.8755 29.5276C20.7252 29.687 20.5489 29.7622 20.2821 29.7484C20.463 29.4586 20.6777 29.5061 20.8893 29.5444L20.8755 29.5276Z" fill="black"/>
<path d="M32.8872 68.2861C33.0129 68.4548 32.9608 68.6234 32.924 68.7967C32.7446 68.6388 32.8198 68.4686 32.8872 68.2861Z" fill="black"/>
<path d="M33.3474 79.0864C33.2524 78.9423 33.1941 78.8089 33.3474 78.7031C33.4778 78.8365 33.4011 78.9668 33.3474 79.0864Z" fill="black"/>
<path d="M32.8214 1.20938C32.9732 1.27838 33.1848 1.20632 33.3105 1.45471C33.0606 1.48998 32.9793 1.27992 32.8413 1.18945L32.8214 1.20938Z" fill="black"/>
<path d="M21.1137 10.6787C21.293 10.7845 21.3298 10.878 21.2547 11.0068C21.1535 10.9409 21.0845 10.8612 21.1137 10.6787Z" fill="black"/>
<path d="M27.228 56.4648C27.3598 56.6212 27.346 56.7715 27.2096 56.9662C27.0854 56.7761 27.0808 56.6258 27.228 56.4648Z" fill="black"/>
<path d="M37.9844 48.0559C37.7881 47.8903 37.897 47.7937 37.8586 47.6357C38.0396 47.7967 37.943 47.8949 37.9844 48.0559Z" fill="black"/>
<path d="M0.0384074 33.9014C0.0246078 33.86 -0.0106547 33.8078 0.00314487 33.7787C0.0169444 33.7465 0.076741 33.7358 0.116606 33.7158C0.130406 33.7588 0.164135 33.8094 0.151869 33.8431C0.141136 33.8722 0.079806 33.883 0.0384074 33.9014Z" fill="black"/>
<path d="M29.068 42.7822C29.0711 42.8282 29.0726 42.8742 29.0757 42.9202C29.0603 42.9233 29.045 42.9248 29.0297 42.9279C29.0266 42.885 29.022 42.8436 29.0189 42.8006C29.0358 42.793 29.0527 42.7884 29.068 42.7822Z" fill="black"/>
<path d="M37.5214 72.2637C37.5214 72.3296 37.5352 72.4001 37.5184 72.4615C37.5015 72.5259 37.4386 72.5274 37.4248 72.4676C37.411 72.4047 37.431 72.3342 37.4356 72.2667C37.4632 72.2667 37.4923 72.2652 37.5214 72.2637Z" fill="black"/>
<path d="M32.4857 1.05653C32.3723 1.02893 32.2358 1.06573 32.1407 0.927735C32.3309 0.815805 32.3999 0.943069 32.4658 1.07493L32.4857 1.05653Z" fill="black"/>
<path d="M59.7001 30.6873C59.5683 30.7778 59.4778 30.764 59.418 30.6674C59.4027 30.6428 59.4333 30.557 59.464 30.5416C59.5729 30.488 59.6449 30.5432 59.7001 30.6873Z" fill="black"/>
<path d="M40.3732 41.582C40.4468 41.6955 40.4744 41.8013 40.3609 41.9086C40.2735 41.7936 40.2643 41.6878 40.3732 41.582Z" fill="black"/>
<path d="M26.9581 51.0781C26.975 51.0919 27.0041 51.1027 27.0087 51.1195C27.0225 51.1732 26.9934 51.2069 26.9366 51.2039C26.9182 51.2039 26.9014 51.1793 26.8845 51.1655C26.9075 51.1364 26.9336 51.1073 26.9581 51.0781Z" fill="black"/>
<path d="M29.0498 43.9491C29.0468 43.9016 29.0437 43.8556 29.0406 43.8096C29.1495 43.8494 29.0912 43.8985 29.0498 43.9491Z" fill="black"/>
<path d="M56.3529 20.871C56.3452 20.8848 56.3391 20.9078 56.3283 20.9124C56.3099 20.9201 56.2808 20.9231 56.267 20.9139C56.2195 20.8833 56.2317 20.8557 56.2977 20.848C56.3145 20.8449 56.3345 20.8633 56.3529 20.871Z" fill="black"/>
<path d="M37.0855 63.3532C37.2235 63.4038 37.248 63.5081 37.2158 63.6507C37.0149 63.5985 37.0931 63.456 37.1039 63.3379L37.0855 63.3532Z" fill="black"/>
<path d="M35.3898 64.7672C35.3546 64.7488 35.2978 64.7396 35.2871 64.712C35.2764 64.6844 35.3101 64.6399 35.3254 64.6016C35.3638 64.62 35.419 64.6292 35.4358 64.6598C35.4481 64.6798 35.4067 64.7304 35.3898 64.7672Z" fill="black"/>
<path d="M19.7673 5.60254C19.7964 5.63627 19.8256 5.66847 19.8547 5.7022C19.8164 5.72367 19.7796 5.74667 19.7397 5.762C19.7336 5.76507 19.6952 5.71907 19.6998 5.70834C19.7167 5.67 19.7443 5.63627 19.7673 5.60254Z" fill="black"/>
<path d="M12.7766 28.909C12.8119 28.886 12.8456 28.8615 12.8502 28.8584C12.8441 28.8615 12.8027 28.8783 12.7628 28.8937L12.7766 28.909Z" fill="black"/>
<path d="M17.8539 28.6982L17.791 28.7181L17.8002 28.666L17.8539 28.6982Z" fill="black"/>
<path d="M35.9371 61.5304C35.9325 61.512 35.9233 61.4936 35.9249 61.4752C35.9249 61.4706 35.9632 61.4584 35.9647 61.4614C35.9985 61.512 35.9877 61.535 35.9371 61.5304Z" fill="black"/>
<path d="M34.738 4.88639C34.7226 4.89099 34.7073 4.89712 34.692 4.90172C34.6858 4.88179 34.6766 4.86339 34.6766 4.84346C34.6766 4.83886 34.7058 4.83272 34.7211 4.82812C34.7272 4.84806 34.7318 4.86646 34.738 4.88639Z" fill="black"/>
<path d="M32.8418 1.19157C32.7238 1.14711 32.6057 1.10111 32.4876 1.05664L32.4692 1.07504C32.6057 1.07044 32.7222 1.11951 32.8234 1.20997L32.8418 1.19157Z" fill="black"/>
<path d="M40.7565 42.4019C40.7396 42.3636 40.7212 42.3253 40.7335 42.3513C40.7319 42.3299 40.735 42.3743 40.7396 42.4203L40.7565 42.4019Z" fill="black"/>
<path d="M35.7118 64.1249C35.6566 64.0942 35.5861 64.0712 35.6413 63.9854C35.7302 64.013 35.7133 64.0758 35.6934 64.1402L35.7118 64.1249Z" fill="black"/>
<path d="M35.7698 46.0732L35.7958 46.0195L35.8127 46.0778L35.7698 46.0732Z" fill="black"/>
<path d="M19.0878 30.5537L19.1353 30.5552L19.1108 30.6074L19.0878 30.5537Z" fill="black"/>
<path d="M33.2112 79.7233L33.1851 79.7755L33.1698 79.7188L33.2112 79.7233Z" fill="black"/>
<path d="M40.1475 24.6787L40.1935 24.7032L40.1429 24.717L40.1475 24.6787Z" fill="black"/>
<path d="M38.6232 25.5566L38.657 25.5137L38.6079 25.5397L38.6232 25.5566Z" fill="black"/>
<path d="M2.81564 32.9121L2.82944 32.8799L2.79724 32.8937L2.81564 32.9121Z" fill="black"/>
<path d="M12.3018 29.2488C12.3938 29.2043 12.334 29.327 12.3432 29.2258C12.3478 29.1752 12.3079 29.1767 12.3018 29.235V29.2488Z" fill="black"/>
<path d="M12.7633 28.8936L12.7449 28.9273L12.7771 28.9089L12.7633 28.8936Z" fill="black"/>
<path d="M17.7327 37.18C17.2788 37.3011 16.825 37.4238 16.2285 37.5832C16.6655 36.8273 17.2665 37.1846 17.7327 37.18Z" fill="black"/>
</svg>
