<svg width="58" height="49" viewBox="0 0 58 49" fill="none" xmlns="http://www.w3.org/2000/svg">
<path d="M55.4902 19.7307C54.8311 19.6372 54.3861 19.3567 54.2719 18.8892C54.1321 18.3283 54.3661 17.7352 54.931 17.4927C55.2905 17.3378 55.7185 17.2735 56.1093 17.2882C56.563 17.3028 56.8996 17.5832 57.0109 18.0682C57.1222 18.5532 56.9966 18.9915 56.5887 19.2544C56.2548 19.4677 55.8583 19.5758 55.4902 19.7307Z" fill="#242424"/>
<path d="M53.4658 9.09084C53.0521 9.17557 52.5614 9.44144 52.2076 9.73945C51.2604 10.5283 50.3845 11.396 49.4487 12.1995C48.8809 12.6874 48.7496 12.6378 48.5785 12.0768C48.3046 11.1886 48.0421 10.2917 47.7197 9.42683C47.4429 8.6818 47.0264 8.03611 46.1362 7.82283C44.2731 7.37581 42.256 8.5737 41.4457 10.6656C41.0947 11.5743 40.5869 12.4069 40.0248 13.2601C39.4228 14.1687 38.8408 15.1329 38.5013 16.0824C37.9221 17.7098 37.574 19.3459 37.0547 20.9792C36.7865 21.8265 36.4185 22.6854 35.9877 23.5123C35.6596 24.1433 35.146 24.2398 34.7551 23.822C34.6524 23.7109 34.5554 23.5765 34.5269 23.4275C34.3414 22.4605 34.1303 21.5021 34.0162 20.5117C33.7851 18.4636 33.6424 16.3863 33.3799 14.3499C33.3371 14.0051 32.9662 13.6604 32.6067 13.5669C31.6966 13.3302 30.6381 14.1775 30.3927 15.3082C30.0475 16.9005 29.7736 18.487 29.4255 20.0793C29.1545 21.3181 28.8891 22.5656 28.4612 23.8015C28.29 24.2982 27.7279 25.0315 27.2714 25.201C26.5781 25.461 26.1815 24.8708 26.0132 24.3654C25.5738 23.0419 25.22 21.6716 24.8719 20.3043C24.6808 19.5505 24.5838 18.7528 24.424 17.9844C24.327 17.517 24.0617 17.1897 23.4654 17.2394C22.7977 17.2949 22.2642 17.6923 22.0074 18.2766C21.6394 19.1151 21.2998 19.977 21.1115 20.8185C20.8177 22.1362 20.5951 23.4538 19.9161 24.7598C19.6878 25.201 19.3283 25.6451 18.9403 26.0103C18.3726 26.545 17.6878 26.6034 17.2884 26.1768C16.9289 25.7941 16.5865 25.3763 16.3583 24.903C15.9759 24.1141 15.6621 23.2815 15.3682 22.4429C15.0401 21.5109 14.9431 20.5526 15.4995 19.3693C16.0558 18.189 16.4866 16.9619 16.7862 15.7669C17.1343 14.3732 18.13 9.09376 18.2299 7.73226C18.3269 6.42042 18.0473 5.23714 16.9431 4.54178C16.5722 4.30805 16.1671 4.15027 15.6735 4.58268C15.1628 5.0297 14.6207 5.50886 14.2641 6.0406C12.7148 8.35165 11.4452 14.6099 11.1542 16.9589C10.943 18.6652 10.983 20.3305 10.9145 22.0134C10.8831 22.814 10.8831 23.483 10.5721 23.7811L10.8318 25.0491C11.274 24.8475 11.1171 25.3967 11.2512 25.9373C11.2826 26.057 11.2883 26.1885 11.3197 26.3083C11.7562 27.9678 12.4181 29.4783 13.7676 30.5331C15.2883 31.7193 17.4424 31.3132 19.1201 29.4257C19.8162 28.6457 20.3041 27.7283 20.8861 26.8693C21.0117 26.6852 21.123 26.4982 21.2399 26.3142C21.3341 26.3463 21.3598 26.3492 21.3683 26.3609C21.414 26.4339 21.4568 26.507 21.4939 26.583C22.0502 27.6377 22.8519 28.4499 24.0617 28.8969C25.9219 29.5864 28.9833 28.6106 30.1245 26.4807C30.3842 25.9957 30.7037 25.8759 31.0347 26.2031C31.106 26.2762 31.2001 26.3288 31.2857 26.3872C33.3428 27.7955 36.3472 26.7144 37.8422 24.0177C38.1503 23.4597 38.4043 22.887 38.7095 22.2676C39.1204 22.7818 39.4456 23.3048 39.8879 23.7226C41.012 24.7803 42.5698 24.7978 44.3929 24.1287C46.1191 23.4947 47.1091 22.2968 47.7083 20.7688C48.2675 19.3372 48.5785 17.9289 48.6355 16.5353C48.6555 16.0181 48.7011 15.4543 49.306 15.0569C50.9637 13.9671 52.1391 12.4712 53.4402 11.0805C53.7511 10.7504 53.9908 10.3238 54.1392 9.93228C54.376 9.34795 54.0878 8.96521 53.4658 9.09084ZM16.2812 7.54527C16.849 8.08578 15.5622 15.3783 14.7263 16.5148C14.8518 14.791 15.5451 9.30704 16.2812 7.54527ZM44.5841 20.6256C43.3772 20.3101 42.7067 18.2825 43.3516 16.7047C43.4029 16.582 43.7453 16.395 43.9079 16.3892C44.6155 16.3746 45.3145 16.398 45.9964 16.4535C46.1619 16.4681 46.3758 16.6492 46.3587 16.7895C46.2132 18.1276 45.7168 19.4161 44.5841 20.6256ZM45.4457 13.7422C44.2931 13.6048 43.3002 11.8781 43.8023 10.7387C43.9478 10.4056 44.3387 10.0082 44.6868 9.82418C45.246 9.52617 45.7738 9.6781 45.9736 10.0842C46.3587 10.8614 46.6241 11.7087 46.9408 12.5267C46.8866 12.556 46.8352 12.5823 46.781 12.6115C46.8067 13.6574 46.5499 13.8736 45.4457 13.7422Z" fill="#242424"/>
<path d="M3.9668 45.4992C3.04239 42.7704 2.36049 40.0152 2.1351 37.0468C1.89258 33.8534 1.7699 30.6133 1.57589 27.4023C1.55877 27.1248 1.41897 26.8735 1.2706 26.6631C1.07659 26.3856 0.799841 26.1811 0.594417 25.9152C-0.261517 24.802 -0.230133 23.9284 0.931084 22.4209C1.55592 21.6086 1.73281 20.9045 1.80414 20.0572C2.1408 16.0019 2.35764 11.9642 3.26493 7.8066C3.68719 5.86953 4.15795 3.93537 5.26781 2.04505C5.64443 1.40228 6.1209 0.90559 6.79423 0.639717C7.00251 0.55791 7.20793 0.449808 7.41336 0.382609C10.0097 -0.45007 10.3406 0.0904408 10.7344 1.86682C11.2765 4.31811 10.8342 6.97977 10.0496 9.71738C9.18514 12.7355 7.96115 15.7068 6.54316 18.6577C6.42333 18.9061 6.30064 19.1632 6.23502 19.4144C6.01818 20.253 6.06383 20.8724 6.71149 21.3661C7.64731 22.079 8.37771 23.0432 9.16231 23.9314C9.64164 24.4719 9.67017 24.4923 10.3121 23.721C11.8642 21.8511 12.9455 19.7884 13.9584 17.6994C14.1125 17.3839 14.1638 16.8404 14.6517 16.8901C15.1424 16.9369 14.977 17.4394 14.8286 17.8455C13.8871 20.4195 12.5946 22.8854 10.8 25.1789C10.4491 25.6289 10.3834 25.9298 10.586 26.3125C11.6702 28.346 12.7515 30.3883 13.2851 32.7724C13.9498 35.735 14.1981 38.8407 12.957 42.3175C12.2694 44.2429 11.2422 45.9871 9.35918 47.2318C7.362 48.5495 5.944 48.5056 4.87694 47.0039C4.52886 46.4984 4.24069 45.9521 3.9668 45.4992ZM9.59599 29.5293C9.37059 29.0268 9.1509 28.5243 8.92265 28.0246C8.73149 27.6068 8.42906 27.5543 7.89838 27.8902C7.41621 28.197 6.88838 28.4424 6.37768 28.609C5.92974 28.7551 5.83558 28.9683 5.87267 29.3189C6.22646 32.5883 6.54886 35.8664 6.95115 39.1153C7.11948 40.4856 7.61022 41.6893 8.36629 42.7002C8.80282 43.2875 9.47045 43.1765 10.0753 42.4168C10.2921 42.1422 10.5261 41.8179 10.606 41.5199C10.8742 40.5061 11.1994 39.463 11.2793 38.4843C11.5418 35.1243 10.7486 32.2319 9.59599 29.5293ZM8.88271 4.87616C7.90694 6.07112 6.24073 13.4308 6.75143 14.1642C8.05816 12.4667 9.53607 6.11787 8.88271 4.87616ZM6.12375 23.7561C6.06383 23.8028 6.00106 23.8525 5.94115 23.8992C5.81561 25.5587 6.01533 25.9765 7.60166 25.585C7.06528 24.9218 6.59451 24.3404 6.12375 23.7561Z" fill="#242424"/>
</svg>
