<svg width="45" height="45" viewBox="0 0 45 45" fill="none" xmlns="http://www.w3.org/2000/svg">
<path d="M21.2175 17.2656C21.3075 17.513 21.375 17.7379 21.375 18.0078V29.7494C21.375 30.8741 20.9475 31.9538 20.1825 32.7861L13.905 39.6466L6.255 31.9988L9 29.2546L15.3 1.94752C15.4373 1.34672 15.7913 0.817597 16.2943 0.46128C16.7973 0.104962 17.414 -0.0535547 18.0265 0.0160298C18.639 0.0856143 19.2044 0.378419 19.6146 0.838476C20.0248 1.29853 20.251 1.89357 20.25 2.50986V13.6666C19.8828 13.5687 19.505 13.5158 19.125 13.5092C16.65 13.5092 14.625 15.5336 14.625 18.0078V24.7559C14.625 25.3857 15.12 25.8806 15.75 25.8806C16.38 25.8806 16.875 25.3857 16.875 24.7559V18.0078C16.875 16.7707 17.8875 15.7585 19.125 15.7585C19.5525 15.7585 19.9125 15.916 20.25 16.1184C20.52 16.2759 20.7225 16.4783 20.925 16.7032C20.9925 16.7932 21.06 16.8832 21.105 16.9956C21.15 17.0856 21.195 17.1756 21.2175 17.2656ZM0 38.252L9 45L11.6325 42.1433L3.87 34.3831L0 38.252ZM36 29.2546L29.7 1.94752C29.5627 1.34672 29.2087 0.817597 28.7057 0.46128C28.2027 0.104962 27.586 -0.0535547 26.9735 0.0160298C26.361 0.0856143 25.7956 0.378419 25.3854 0.838476C24.9752 1.29853 24.749 1.89357 24.75 2.50986V13.6666C25.11 13.5766 25.4925 13.5092 25.875 13.5092C28.35 13.5092 30.375 15.5336 30.375 18.0078V24.7559C30.375 25.3857 29.88 25.8806 29.25 25.8806C28.62 25.8806 28.125 25.3857 28.125 24.7559V18.0078C28.125 16.7707 27.1125 15.7585 25.875 15.7585C25.4475 15.7585 25.0875 15.916 24.75 16.1184C24.48 16.2759 24.2775 16.4783 24.0975 16.7032C24.03 16.7932 23.94 16.8832 23.895 16.9956C23.85 17.0856 23.805 17.1756 23.7825 17.2656C23.6925 17.513 23.625 17.7379 23.625 18.0078V29.7494C23.625 30.8741 24.0525 31.9538 24.8175 32.7861L31.095 39.6466L38.745 31.9988L36 29.2546ZM41.13 34.3831L33.3675 42.1433L36 45L45 38.252L41.13 34.3831Z" fill="#444444"/>
</svg>
